<svg width="230" height="231" viewBox="0 0 230 231" fill="none" xmlns="http://www.w3.org/2000/svg">
<circle cx="118.668" cy="122.739" r="71.9659" fill="#F4C0C5"/>
<circle cx="51.213" cy="74.1464" r="4.51068" fill="#F4C0C5"/>
<circle cx="83.8129" cy="45.2373" r="8.40627" fill="#F4C0C5"/>
<circle cx="52.6482" cy="169.076" r="7.99621" fill="#F4C0C5"/>
<circle cx="195.76" cy="161.285" r="7.99621" fill="#F4C0C5"/>
<circle cx="180.177" cy="170.307" r="3.89559" fill="#F4C0C5"/>
<path d="M117.038 59.6043C116.801 59.5538 116.801 59.2145 117.038 59.1639L120.633 58.3995C120.719 58.3811 120.787 58.3136 120.806 58.2271L121.58 54.6579C121.631 54.4213 121.969 54.4213 122.02 54.6579L122.794 58.2271C122.813 58.3136 122.88 58.3811 122.967 58.3996L126.562 59.1639C126.799 59.2145 126.799 59.5538 126.562 59.6043L122.967 60.3687C122.88 60.3871 122.813 60.4546 122.794 60.5412L122.02 64.1104C121.969 64.3469 121.631 64.3469 121.58 64.1104L120.806 60.5412C120.787 60.4546 120.719 60.3871 120.633 60.3687L117.038 59.6043Z" fill="#E87882"/>
<path d="M34.0818 94.905C34.1735 94.4715 34.7923 94.4715 34.8841 94.905L36.2549 101.381C36.2883 101.539 36.4111 101.662 36.5688 101.697L42.9778 103.093C43.4082 103.187 43.4082 103.801 42.9778 103.894L36.5688 105.29C36.4111 105.325 36.2883 105.448 36.2549 105.606L34.8841 112.082C34.7923 112.516 34.1735 112.516 34.0818 112.082L32.711 105.606C32.6776 105.448 32.5547 105.325 32.3971 105.29L25.988 103.894C25.5577 103.801 25.5577 103.187 25.988 103.093L32.3971 101.697C32.5547 101.662 32.6776 101.539 32.711 101.381L34.0818 94.905Z" fill="#E87882"/>
<path d="M182.984 115.408C183.076 114.974 183.695 114.974 183.787 115.408L184.586 119.186C184.62 119.344 184.742 119.467 184.9 119.502L188.65 120.318C189.08 120.412 189.08 121.026 188.65 121.12L184.9 121.937C184.742 121.971 184.62 122.095 184.586 122.252L183.787 126.03C183.695 126.464 183.076 126.464 182.984 126.03L182.185 122.252C182.151 122.095 182.028 121.971 181.871 121.937L178.121 121.12C177.691 121.026 177.691 120.412 178.121 120.318L181.871 119.502C182.028 119.467 182.151 119.344 182.185 119.186L182.984 115.408Z" fill="#E87882"/>
<path d="M199.515 136.612L200.771 142.545L206.619 143.819L200.771 145.093L199.515 151.025L198.26 145.093L192.412 143.819L198.26 142.545L199.515 136.612Z" fill="white"/>
<path d="M173.206 64.3057L87.2983 154.929L97.1398 193.68L103.906 161.08L173.206 64.3057Z" fill="#EFA2A9"/>
<path d="M86.8883 154.52L96.9348 194.501L103.291 161.286" stroke="#E87882" stroke-width="1.64025"/>
<path d="M96.7299 193.68L122.564 169.281" stroke="#E87882" stroke-width="1.64025"/>
<path d="M173.206 64.3057L103.701 160.875L158.239 185.274L173.206 64.3057Z" fill="url(#paint0_linear_2264_7250)" stroke="#E87882" stroke-width="1.64025"/>
<path d="M173.206 63.4854L44.6519 136.476L86.8883 154.519L173.206 63.4854Z" fill="url(#paint1_linear_2264_7250)" stroke="#E87882" stroke-width="1.64025"/>
<path d="M123.794 170.109L103.991 161.49L96.7299 194.705L123.794 170.109Z" fill="#E87882"/>
<defs>
<linearGradient id="paint0_linear_2264_7250" x1="138.454" y1="64.3057" x2="138.454" y2="185.274" gradientUnits="userSpaceOnUse">
<stop stop-color="#DDE2FF"/>
<stop offset="1" stop-color="#FCFCFF"/>
</linearGradient>
<linearGradient id="paint1_linear_2264_7250" x1="108.929" y1="63.4854" x2="108.929" y2="154.519" gradientUnits="userSpaceOnUse">
<stop stop-color="#DDE2FF"/>
<stop offset="1" stop-color="#FCFCFF"/>
</linearGradient>
</defs>
</svg>
