<svg width="40" height="40" viewBox="0 0 40 40" fill="none" xmlns="http://www.w3.org/2000/svg">
<path d="M2.5 14.5C2.5 10.2996 2.5 8.19941 3.31745 6.59507C4.0365 5.18386 5.18386 4.0365 6.59507 3.31745C8.19941 2.5 10.2996 2.5 14.5 2.5H25.5C29.7004 2.5 31.8006 2.5 33.4049 3.31745C34.8161 4.0365 35.9635 5.18386 36.6825 6.59507C37.5 8.19941 37.5 10.2996 37.5 14.5V25.5C37.5 29.7004 37.5 31.8006 36.6825 33.4049C35.9635 34.8161 34.8161 35.9635 33.4049 36.6825C31.8006 37.5 29.7004 37.5 25.5 37.5H14.5C10.2996 37.5 8.19941 37.5 6.59507 36.6825C5.18386 35.9635 4.0365 34.8161 3.31745 33.4049C2.5 31.8006 2.5 29.7004 2.5 25.5V14.5Z" fill="white"/>
<path d="M29.5452 11.675C27.765 10.8925 25.8616 10.3238 23.8717 10C23.6272 10.4151 23.3417 10.9734 23.1449 11.4176C21.0295 11.1187 18.9336 11.1187 16.8571 11.4176C16.6603 10.9734 16.3683 10.4151 16.1218 10C14.1297 10.3238 12.2241 10.8946 10.444 11.6791C6.85345 16.7767 5.88011 21.7477 6.36678 26.648C8.74821 28.3188 11.0561 29.3337 13.325 29.9979C13.8852 29.2736 14.3849 28.5036 14.8153 27.692C13.9956 27.3993 13.2104 27.0382 12.4685 26.6189C12.6653 26.482 12.8578 26.3387 13.0439 26.1914C17.5688 28.1797 22.4852 28.1797 26.9561 26.1914C27.1442 26.3387 27.3367 26.482 27.5314 26.6189C26.7873 27.0402 26 27.4014 25.1802 27.6941C25.6107 28.5036 26.1082 29.2757 26.6705 30C28.9416 29.3358 31.2517 28.3209 33.6331 26.648C34.2042 20.9672 32.6576 16.0419 29.5452 11.675ZM15.4318 23.6343C14.0734 23.6343 12.9595 22.4429 12.9595 20.9922C12.9595 19.5413 14.0496 18.3479 15.4318 18.3479C16.8139 18.3479 17.9278 19.5392 17.904 20.9922C17.9062 22.4429 16.8139 23.6343 15.4318 23.6343ZM24.5682 23.6343C23.2098 23.6343 22.0958 22.4429 22.0958 20.9922C22.0958 19.5413 23.186 18.3479 24.5682 18.3479C25.9502 18.3479 27.0642 19.5392 27.0404 20.9922C27.0404 22.4429 25.9502 23.6343 24.5682 23.6343Z" fill="#5865F2"/>
</svg>
