<svg width="234" height="186" viewBox="0 0 234 186" fill="none" xmlns="http://www.w3.org/2000/svg">
<path d="M137.179 67.9898C122.743 68.0759 108.082 67.404 94.3684 63.5967C80.655 59.7893 68.5267 52.6053 57.5009 44.2154C50.2824 38.7542 43.7186 34.4128 34.3467 35.0674C25.1833 35.549 16.4183 38.968 9.34913 44.8184C-2.57251 55.2584 -0.763591 74.5536 3.99128 88.1291C11.1581 108.579 32.9685 122.774 51.4884 132.026C72.9025 142.724 96.4185 148.943 120.003 152.509C140.677 155.645 167.225 157.936 185.124 144.43C201.577 132.043 206.091 103.72 202.059 84.5974C201.078 78.9492 198.071 73.8529 193.601 70.2638C182.041 61.8222 164.813 67.4557 151.823 67.7486C147.085 67.852 142.107 67.9725 137.179 67.9898Z" fill="#F4C0C5"/>
<path d="M66.7867 1.12891V8.53687" stroke="#F4C0C5" stroke-width="1.46436" stroke-linecap="round" stroke-linejoin="round"/>
<path d="M63.0827 4.83203H70.4907" stroke="#F4C0C5" stroke-width="1.46436" stroke-linecap="round" stroke-linejoin="round"/>
<path d="M207.331 148.789V156.197" stroke="#F4C0C5" stroke-width="1.46436" stroke-linecap="round" stroke-linejoin="round"/>
<path d="M203.627 152.492H211.035" stroke="#F4C0C5" stroke-width="1.46436" stroke-linecap="round" stroke-linejoin="round"/>
<path d="M10.8134 116.797C11.7458 116.797 12.5017 116.041 12.5017 115.108C12.5017 114.176 11.7458 113.42 10.8134 113.42C9.88095 113.42 9.12506 114.176 9.12506 115.108C9.12506 116.041 9.88095 116.797 10.8134 116.797Z" fill="#F4C0C5"/>
<path d="M154.562 8.77704C155.495 8.77704 156.251 8.02116 156.251 7.08872C156.251 6.15628 155.495 5.40039 154.562 5.40039C153.63 5.40039 152.874 6.15628 152.874 7.08872C152.874 8.02116 153.63 8.77704 154.562 8.77704Z" fill="#F4C0C5"/>
<path d="M107.772 186C142.69 186 170.998 184.242 170.998 182.072C170.998 179.903 142.69 178.145 107.772 178.145C72.8529 178.145 44.5456 179.903 44.5456 182.072C44.5456 184.242 72.8529 186 107.772 186Z" fill="#F4C0C5"/>
<path d="M59.0688 21.25H150.893C153.178 21.25 155.369 22.1575 156.984 23.773C158.599 25.3884 159.507 27.5794 159.507 29.8639V139.105C159.507 141.39 158.599 143.581 156.984 145.196C155.369 146.812 153.178 147.719 150.893 147.719H47.3022C45.0176 147.719 42.8267 146.812 41.2112 145.196C39.5958 143.581 38.6883 141.39 38.6883 139.105V41.8372L59.0688 21.25Z" fill="white" stroke="#E87882" stroke-width="1.72278" stroke-linecap="round" stroke-linejoin="round"/>
<path d="M159.093 74.4844H64.4093V148.771H159.093V74.4844Z" fill="#F4C0C5"/>
<path d="M38.6883 41.8372H55.382C56.3614 41.8327 57.2991 41.4404 57.99 40.7463C58.6809 40.0522 59.0688 39.1126 59.0688 38.1333V21.25L38.6883 41.8372Z" fill="white" stroke="#E87882" stroke-width="1.72278" stroke-linecap="round" stroke-linejoin="round"/>
<path d="M158.628 50.7617H64.9778C61.3337 50.7617 58.3796 53.7159 58.3796 57.36V77.3959C58.3796 81.04 61.3337 83.9942 64.9778 83.9942H158.628C162.272 83.9942 165.226 81.04 165.226 77.3959V57.36C165.226 53.7159 162.272 50.7617 158.628 50.7617Z" fill="white" stroke="#E87882" stroke-width="1.72278" stroke-linecap="round" stroke-linejoin="round"/>
<path d="M76.5721 73.1761C79.75 73.1761 82.3262 70.6 82.3262 67.4221C82.3262 64.2442 79.75 61.668 76.5721 61.668C73.3942 61.668 70.818 64.2442 70.818 67.4221C70.818 70.6 73.3942 73.1761 76.5721 73.1761Z" fill="#F4C0C5"/>
<path d="M94.6612 73.1761C97.8391 73.1761 100.415 70.6 100.415 67.4221C100.415 64.2442 97.8391 61.668 94.6612 61.668C91.4834 61.668 88.9072 64.2442 88.9072 67.4221C88.9072 70.6 91.4834 73.1761 94.6612 73.1761Z" fill="#F4C0C5"/>
<path d="M112.733 73.1761C115.911 73.1761 118.487 70.6 118.487 67.4221C118.487 64.2442 115.911 61.668 112.733 61.668C109.555 61.668 106.979 64.2442 106.979 67.4221C106.979 70.6 109.555 73.1761 112.733 73.1761Z" fill="#F4C0C5"/>
<path d="M158.628 87.5957H64.9778C61.3337 87.5957 58.3796 90.5498 58.3796 94.194V114.23C58.3796 117.874 61.3337 120.828 64.9778 120.828H158.628C162.272 120.828 165.226 117.874 165.226 114.23V94.194C165.226 90.5498 162.272 87.5957 158.628 87.5957Z" fill="white" stroke="#E87882" stroke-width="1.72278" stroke-linecap="round" stroke-linejoin="round"/>
<path d="M76.5721 110.026C79.75 110.026 82.3262 107.45 82.3262 104.272C82.3262 101.094 79.75 98.5176 76.5721 98.5176C73.3942 98.5176 70.818 101.094 70.818 104.272C70.818 107.45 73.3942 110.026 76.5721 110.026Z" fill="#F4C0C5"/>
<path d="M94.6612 110.026C97.8391 110.026 100.415 107.45 100.415 104.272C100.415 101.094 97.8391 98.5176 94.6612 98.5176C91.4834 98.5176 88.9072 101.094 88.9072 104.272C88.9072 107.45 91.4834 110.026 94.6612 110.026Z" fill="#F4C0C5"/>
<path d="M112.733 110.026C115.911 110.026 118.487 107.45 118.487 104.272C118.487 101.094 115.911 98.5176 112.733 98.5176C109.555 98.5176 106.979 101.094 106.979 104.272C106.979 107.45 109.555 110.026 112.733 110.026Z" fill="#F4C0C5"/>
<path d="M158.628 124.445H64.9778C61.3337 124.445 58.3796 127.399 58.3796 131.044V151.08C58.3796 154.724 61.3337 157.678 64.9778 157.678H158.628C162.272 157.678 165.226 154.724 165.226 151.08V131.044C165.226 127.399 162.272 124.445 158.628 124.445Z" fill="white" stroke="#E87882" stroke-width="1.72278" stroke-linecap="round" stroke-linejoin="round"/>
<path d="M76.5721 146.858C79.75 146.858 82.3262 144.282 82.3262 141.104C82.3262 137.926 79.75 135.35 76.5721 135.35C73.3942 135.35 70.818 137.926 70.818 141.104C70.818 144.282 73.3942 146.858 76.5721 146.858Z" fill="#F4C0C5"/>
<path d="M94.6612 146.858C97.8391 146.858 100.415 144.282 100.415 141.104C100.415 137.926 97.8391 135.35 94.6612 135.35C91.4834 135.35 88.9072 137.926 88.9072 141.104C88.9072 144.282 91.4834 146.858 94.6612 146.858Z" fill="#F4C0C5"/>
<path d="M112.733 146.858C115.911 146.858 118.487 144.282 118.487 141.104C118.487 137.926 115.911 135.35 112.733 135.35C109.555 135.35 106.979 137.926 106.979 141.104C106.979 144.282 109.555 146.858 112.733 146.858Z" fill="#F4C0C5"/>
<path d="M167.104 92.7292C186.828 92.7292 202.818 76.7399 202.818 57.016C202.818 37.2921 186.828 21.3027 167.104 21.3027C147.38 21.3027 131.391 37.2921 131.391 57.016C131.391 76.7399 147.38 92.7292 167.104 92.7292Z" fill="white" stroke="#E87882" stroke-width="1.72278" stroke-linecap="round" stroke-linejoin="round"/>
<path d="M192.464 82.9258L201.973 92.4355" stroke="#E87882" stroke-width="1.72278" stroke-linecap="round" stroke-linejoin="round"/>
<path d="M200.911 87.818L197.959 90.9064C196.631 92.2957 196.68 94.4985 198.069 95.8266L223.723 120.35C225.112 121.678 227.315 121.629 228.643 120.239L231.595 117.151C232.923 115.762 232.874 113.559 231.484 112.231L205.831 87.7072C204.442 86.3791 202.239 86.4287 200.911 87.818Z" fill="white" stroke="#E87882" stroke-width="1.72278" stroke-linecap="round" stroke-linejoin="round"/>
</svg>
