<svg width="40" height="40" viewBox="0 0 40 40" fill="none" xmlns="http://www.w3.org/2000/svg">
<path d="M23.1993 2.60333L23.1833 10.304L23.1673 18.0047L22.4322 16.217V16.2124L21.4788 33.3556C22.4162 35.6291 22.9169 36.8438 22.9223 36.8484C22.9276 36.853 23.4603 36.8805 24.1048 36.908C26.0543 36.9905 28.4726 37.1693 30.3103 37.3664C30.7364 37.4122 31.0986 37.4351 31.1252 37.4168C31.1519 37.3985 31.1572 29.5603 31.1519 19.994L31.1359 2.60333H23.1993Z" fill="url(#paint0_linear_606_6285)"/>
<path d="M8.84229 2.58027V19.9893C8.84229 29.5648 8.85294 37.4076 8.86892 37.4213C8.8849 37.4351 9.57203 37.3755 10.403 37.2975C11.2339 37.2196 12.3792 37.1188 12.9491 37.0775C13.8227 37.0134 16.4434 36.8713 16.7417 36.8667C16.8322 36.8667 16.8375 36.4771 16.8482 29.4914L16.8642 22.1162L17.498 23.6563C17.5939 23.8947 17.6259 23.968 17.7218 24.2018L18.6752 7.06317C18.4728 6.57271 18.5793 6.8294 18.3503 6.27018C17.5726 4.3771 16.9121 2.77737 16.8855 2.70403L16.8322 2.57568H8.84229V2.58027Z" fill="url(#paint1_linear_606_6285)"/>
<path d="M8.84229 2.58027L16.8589 22.1298V22.1206L17.4928 23.6608C21.0137 32.2369 22.9046 36.839 22.9153 36.8481C22.9206 36.8527 23.4533 36.8802 24.0978 36.9077C26.0473 36.9902 28.4656 37.169 30.3033 37.3661C30.7241 37.4119 31.0917 37.4348 31.113 37.4165L23.1656 17.9999V18.0045L22.4306 16.2168C21.7115 14.4704 21.2321 13.3016 18.3397 6.27016C17.562 4.37708 16.9015 2.77737 16.8749 2.70403L16.8216 2.57568H12.8319L8.84229 2.58027Z" fill="#E30A17"/>
<defs>
<linearGradient id="paint0_linear_606_6285" x1="34.7315" y1="28.638" x2="22.0286" y2="34.2167" gradientUnits="userSpaceOnUse">
<stop stop-color="#B20610"/>
<stop offset="0.255959" stop-color="#B20610"/>
<stop offset="1" stop-color="#590004"/>
</linearGradient>
<linearGradient id="paint1_linear_606_6285" x1="4.99019" y1="10.2139" x2="18.728" y2="4.25048" gradientUnits="userSpaceOnUse">
<stop stop-color="#B20610"/>
<stop offset="0.255959" stop-color="#B20610"/>
<stop offset="1" stop-color="#590004"/>
</linearGradient>
</defs>
</svg>
