<svg width="40" height="40" viewBox="0 0 40 40" fill="none" xmlns="http://www.w3.org/2000/svg">
<path d="M31.0606 12.0215C31.4502 9.48146 31.0606 7.78808 29.6971 6.22495C28.2037 4.46643 25.4766 3.75 21.9703 3.75H11.9061C11.1918 3.75 10.6074 4.27104 10.4776 4.98747L6.25708 31.6909C6.19215 32.2119 6.58173 32.6678 7.10118 32.6678H13.3345L12.88 35.4033C12.8151 35.8592 13.1397 36.25 13.6592 36.25H18.9186C19.5679 36.25 20.0873 35.7941 20.1522 35.2079L21.2561 28.3041C21.321 27.7179 21.9054 27.262 22.4898 27.262H23.2689C28.3335 27.262 32.3592 25.1779 33.528 19.1859C33.9825 16.7109 33.7877 14.5616 32.4891 13.1288C32.0995 12.6728 31.645 12.3472 31.0606 12.0215Z" fill="#009CDE"/>
<path d="M31.0606 12.0215C31.4502 9.48146 31.0606 7.78808 29.6971 6.22495C28.2036 4.46643 25.4766 3.75 21.9703 3.75H11.906C11.1918 3.75 10.6074 4.27104 10.4776 4.98747L6.25708 31.6909C6.19215 32.2119 6.58173 32.6678 7.10118 32.6678H13.3345L14.8279 23.0286C14.9578 22.3121 15.5422 21.7911 16.2564 21.7911H19.2432C25.087 21.7911 29.6321 19.4464 30.9307 12.5426C30.9957 12.4123 30.9957 12.2169 31.0606 12.0215Z" fill="#012169"/>
<path d="M16.5811 12.0867C16.646 11.6308 17.2304 11.0446 17.8147 11.0446H25.7363C26.6453 11.0446 27.5543 11.1097 28.3335 11.24C29.0478 11.3702 30.3464 11.6959 30.9957 12.0867C31.3853 9.54659 30.9957 7.85321 29.6321 6.29008C28.2037 4.46643 25.4766 3.75 21.9703 3.75H11.9061C11.1918 3.75 10.6074 4.27104 10.4776 4.98747L6.25708 31.6909C6.19215 32.2119 6.58173 32.6678 7.10118 32.6678H13.3345L16.5811 12.0867Z" fill="#003087"/>
</svg>
