<svg width="40" height="40" viewBox="0 0 40 40" fill="none" xmlns="http://www.w3.org/2000/svg">
<path fill-rule="evenodd" clip-rule="evenodd" d="M22.8749 30.5391C21.8014 30.8394 20.6694 31 19.5 31C12.5964 31 7 25.4036 7 18.5C7 11.5964 12.5964 6 19.5 6C26.4036 6 32 11.5964 32 18.5C32 22.4441 30.1733 25.9615 27.3199 28.2525C28.1059 29.2448 29.0179 30.0132 30.0149 30.0132C31.6591 30.0132 32.1539 28.6898 32.1957 28.0281H34C34 31.5309 31.9054 33.8792 28.462 33.9909C27.2483 34.0303 25.2146 34.0962 22.8749 30.5391ZM21.7747 28.6258C21.1152 28.8697 20.3609 29 19.5 29C14.329 29 13 24.299 13 18.5C13 12.701 14.3302 8 19.5 8C24.6698 8 26 12.701 26 18.5C26 20.8536 25.7811 23.0263 25.1752 24.7773C24.1957 23.0543 22.6501 21 19.801 21C17.4287 21 15.6119 21.9712 15 22.4568L15.7531 23.9617C15.9623 23.8923 16.4905 23.7536 16.9298 23.7536C17.4789 23.7536 19.4244 23.5775 21.3072 27.6599C21.4639 27.9996 21.6198 28.3212 21.7747 28.6258Z" fill="#B72D2C"/>
</svg>
