<svg width="72" height="72" viewBox="0 0 72 72" fill="none" xmlns="http://www.w3.org/2000/svg">
<circle cx="36" cy="36" r="36" fill="#FFEBEC"/>
<path d="M31.5 36L34.5 39L41.25 32.25M29.0007 23.728C30.2064 23.6318 31.3511 23.1577 32.2717 22.3731C34.4201 20.5423 37.5799 20.5423 39.7283 22.3731C40.6489 23.1577 41.7936 23.6318 42.9993 23.728C45.8131 23.9526 48.0474 26.1869 48.272 29.0007C48.3682 30.2064 48.8423 31.3511 49.6269 32.2717C51.4577 34.4201 51.4577 37.5799 49.6269 39.7283C48.8423 40.6489 48.3682 41.7936 48.272 42.9993C48.0474 45.8131 45.8131 48.0474 42.9993 48.272C41.7936 48.3682 40.6489 48.8423 39.7283 49.6269C37.5799 51.4577 34.4201 51.4577 32.2717 49.6269C31.3511 48.8423 30.2064 48.3682 29.0007 48.272C26.1869 48.0474 23.9526 45.8131 23.728 42.9993C23.6318 41.7936 23.1577 40.6489 22.3731 39.7283C20.5423 37.5799 20.5423 34.4201 22.3731 32.2717C23.1577 31.3511 23.6318 30.2064 23.728 29.0007C23.9526 26.1869 26.1869 23.9526 29.0007 23.728Z" stroke="#FD3842" stroke-width="2" stroke-linecap="round" stroke-linejoin="round"/>
</svg>
