<svg width="40" height="40" viewBox="0 0 40 40" fill="none" xmlns="http://www.w3.org/2000/svg">
<circle cx="20" cy="20" r="17.5" fill="#FFFA37"/>
<path fill-rule="evenodd" clip-rule="evenodd" d="M26.2819 10.2319C25.0751 8.71099 23.0841 7.5 20.0147 7.5C17.3864 7.52588 12.1297 8.98057 12.1297 14.5922C12.1297 15.4118 12.1946 16.5094 12.2513 17.3177C12.1845 17.2982 12.1023 17.2619 11.9722 17.1995L11.9541 17.1908C11.7239 17.0803 11.374 16.9123 10.8873 16.9123C10.3956 16.9123 9.92014 17.1049 9.56719 17.3905C9.21636 17.6743 8.91667 18.1106 8.91667 18.6382C8.91667 19.298 9.28801 19.736 9.72222 20.0169C10.1079 20.2664 10.5942 20.4257 10.9792 20.5518L11.0173 20.5643C11.4294 20.6995 11.7314 20.8025 11.9396 20.9323C12.1017 21.0333 12.1263 21.0973 12.1293 21.158C12.1272 21.1666 12.1223 21.1853 12.1115 21.2156C12.0893 21.278 12.0523 21.3624 11.9983 21.4679C11.8905 21.6784 11.7333 21.9372 11.5464 22.2133C11.1692 22.7702 10.709 23.3413 10.3651 23.672C10.026 23.9982 9.46953 24.4037 8.8877 24.7264C8.59917 24.8864 8.317 25.019 8.06459 25.1101C7.80403 25.2041 7.61308 25.2399 7.4951 25.2399C7.4017 25.2399 7.32086 25.2591 7.28558 25.268C7.236 25.2804 7.18468 25.2967 7.13391 25.3158C7.03322 25.3537 6.9132 25.4104 6.79433 25.4904C6.56721 25.6432 6.25 25.9515 6.25 26.4377C6.25 26.6915 6.30958 26.9064 6.41256 27.0927C6.50271 27.2559 6.61859 27.3797 6.68529 27.451L6.69518 27.4615L6.71364 27.4813C7.08044 27.876 7.6876 28.1506 8.27702 28.339C8.78349 28.5008 9.34974 28.6215 9.90152 28.6939C9.90932 28.7294 9.91746 28.7678 9.92638 28.8098L9.92925 28.8233C9.96399 28.9872 10.01 29.2042 10.0778 29.4042C10.1417 29.593 10.2575 29.8721 10.4945 30.071C10.7965 30.3242 11.1914 30.3498 11.449 30.3487C11.7256 30.3476 12.0485 30.3087 12.3549 30.2717L12.381 30.2686C12.8122 30.2166 13.2632 30.163 13.7304 30.163C14.5829 30.163 15.1294 30.5192 15.9868 31.1047L15.9926 31.1086C16.2895 31.3114 16.622 31.5385 17 31.7619C18.2652 32.5095 19.2932 32.5031 19.8759 32.4994C19.9143 32.4992 19.9508 32.4989 19.9853 32.4989C20.0198 32.4989 20.0564 32.4992 20.0952 32.4994C20.6787 32.5032 21.7341 32.5099 23 31.7619C23.3779 31.5385 23.7105 31.3114 24.0074 31.1086L24.0132 31.1047C24.8706 30.5192 25.4171 30.163 26.2696 30.163C26.7368 30.163 27.1878 30.2166 27.619 30.2686L27.6451 30.2717C27.9515 30.3087 28.2744 30.3476 28.551 30.3487C28.8086 30.3498 29.2035 30.3242 29.5055 30.071C29.7425 29.8721 29.8583 29.593 29.9222 29.4042C29.99 29.2042 30.036 28.9872 30.0707 28.8234L30.0736 28.8098C30.0825 28.7678 30.0907 28.7294 30.0985 28.6939C30.6503 28.6215 31.2165 28.5008 31.723 28.339C32.3124 28.1506 32.9196 27.8759 33.2864 27.4813L33.3048 27.4615L33.3147 27.451C33.3814 27.3797 33.4973 27.2559 33.5874 27.0927C33.6904 26.9064 33.75 26.6915 33.75 26.4377C33.75 25.9515 33.4328 25.6432 33.2057 25.4904C33.0868 25.4104 32.9668 25.3537 32.8661 25.3158C32.8153 25.2967 32.764 25.2804 32.7144 25.268C32.6791 25.2591 32.5983 25.2399 32.5049 25.2399C32.3869 25.2399 32.196 25.2041 31.9354 25.1101C31.683 25.019 31.4008 24.8864 31.1123 24.7264C30.5305 24.4037 29.974 23.9982 29.6348 23.672C29.291 23.3413 28.8308 22.7702 28.4536 22.2133C28.2667 21.9372 28.1095 21.6784 28.0017 21.4679C27.9477 21.3624 27.9107 21.278 27.8885 21.2156C27.8777 21.1853 27.8728 21.1666 27.8707 21.158C27.8737 21.0973 27.8983 21.0333 28.0604 20.9323C28.2686 20.8025 28.5706 20.6995 28.9827 20.5643L29.0208 20.5518C29.4058 20.4257 29.8921 20.2664 30.2778 20.0169C30.712 19.736 31.0833 19.298 31.0833 18.6382C31.0833 18.1106 30.7836 17.6743 30.4328 17.3905C30.0799 17.1049 29.6044 16.9123 29.1127 16.9123C28.626 16.9123 28.2761 17.0803 28.0459 17.1908L28.0278 17.1995C27.8977 17.2619 27.8155 17.2982 27.7487 17.3177C27.8054 16.5093 27.8703 15.4118 27.8703 14.5922C27.8703 13.4796 27.4658 11.7238 26.2819 10.2319ZM14.729 10.9659C13.7277 12.2194 13.3846 13.7077 13.3846 14.5922C13.3846 15.4123 13.4541 16.5516 13.5127 17.3686C13.5322 17.6399 13.4766 17.9562 13.2396 18.2073C12.9998 18.4614 12.6735 18.5439 12.382 18.5439C11.9611 18.5439 11.641 18.3899 11.4362 18.2914L11.4124 18.28C11.184 18.1704 11.0639 18.1195 10.8873 18.1195C10.7266 18.1195 10.5305 18.1885 10.3749 18.3143C10.2173 18.4419 10.1716 18.5667 10.1716 18.6382C10.1716 18.7836 10.2252 18.8876 10.4224 19.0151C10.6553 19.1658 10.9872 19.279 11.4222 19.4217L11.4601 19.4341C11.8214 19.5525 12.2689 19.6991 12.622 19.9192C13.0184 20.1663 13.3846 20.5634 13.3846 21.1752C13.3846 21.3355 13.3403 21.4899 13.2987 21.6068C13.2535 21.7336 13.1925 21.8676 13.1241 22.0012C12.987 22.269 12.8016 22.5714 12.5978 22.8723C12.1935 23.4692 11.6796 24.1147 11.2525 24.5256C10.8207 24.941 10.1713 25.4079 9.51448 25.7722C9.1837 25.9556 8.83836 26.1202 8.50535 26.2403C8.20726 26.3479 7.88599 26.4322 7.5778 26.4453C7.57012 26.4486 7.56163 26.4524 7.55274 26.4569C7.53854 26.4641 7.52525 26.4718 7.51365 26.4796L7.50772 26.4837C7.50888 26.492 7.51021 26.4982 7.51132 26.5025C7.51379 26.5121 7.51671 26.519 7.52065 26.5261C7.53274 26.548 7.55179 26.5724 7.62888 26.655L7.6491 26.6767C7.78797 26.8261 8.1302 27.02 8.67269 27.1934C9.18934 27.3585 9.80029 27.4778 10.3775 27.5325C10.6663 27.5599 10.8328 27.7403 10.9032 27.8376C10.9757 27.9377 11.0172 28.0433 11.0414 28.1135C11.0883 28.2492 11.1237 28.4164 11.1517 28.5483L11.1559 28.5684C11.1941 28.7481 11.2274 28.9018 11.2709 29.0303C11.2863 29.0757 11.3005 29.1103 11.3127 29.1357C11.3403 29.1388 11.3825 29.1418 11.4437 29.1416C11.7091 29.1405 11.9748 29.101 12.2378 29.0692C12.6585 29.0185 13.1791 28.9558 13.7304 28.9558C15.0089 28.9558 15.8525 29.5322 16.6674 30.0891L16.7132 30.1203C17.0148 30.3263 17.317 30.5324 17.6569 30.7333C18.6146 31.2992 19.3434 31.2952 19.8758 31.2922C19.9133 31.292 19.9498 31.2918 19.9853 31.2918C20.0205 31.2918 20.0568 31.292 20.0941 31.2922C20.6324 31.2951 21.3856 31.2991 22.3431 30.7333C22.683 30.5324 22.9852 30.3263 23.2868 30.1203L23.3326 30.0891C24.1475 29.5322 24.9911 28.9558 26.2696 28.9558C26.8209 28.9558 27.3415 29.0185 27.7622 29.0692L27.7749 29.0708C28.1152 29.1118 28.3641 29.1408 28.5563 29.1416C28.6175 29.1418 28.6597 29.1388 28.6873 29.1357C28.6995 29.1103 28.7137 29.0757 28.7291 29.0303C28.7726 28.9018 28.8059 28.7481 28.8441 28.5684L28.8483 28.5483C28.8763 28.4164 28.9117 28.2492 28.9586 28.1135C28.9828 28.0433 29.0243 27.9377 29.0968 27.8376C29.1672 27.7403 29.3337 27.5599 29.6225 27.5325C30.1997 27.4778 30.8107 27.3585 31.3273 27.1934C31.8698 27.02 32.212 26.8261 32.3509 26.6767L32.3711 26.655C32.4482 26.5724 32.4673 26.548 32.4793 26.5261C32.4833 26.519 32.4862 26.5121 32.4887 26.5025C32.4898 26.4982 32.4911 26.492 32.4923 26.4837L32.4863 26.4796C32.4748 26.4718 32.4615 26.4641 32.4473 26.4569C32.4384 26.4524 32.4299 26.4486 32.4222 26.4453C32.114 26.4322 31.7927 26.3479 31.4947 26.2403C31.1616 26.1202 30.8163 25.9556 30.4855 25.7722C29.8287 25.4079 29.1793 24.941 28.7475 24.5256C28.3204 24.1147 27.8065 23.4692 27.4022 22.8723C27.1984 22.5714 27.013 22.269 26.8759 22.0012C26.8075 21.8676 26.7465 21.7336 26.7013 21.6068C26.6597 21.4899 26.6154 21.3355 26.6154 21.1752C26.6154 20.5634 26.9816 20.1663 27.378 19.9192C27.7311 19.6991 28.1786 19.5525 28.5399 19.4341L28.5778 19.4217C29.0128 19.279 29.3447 19.1658 29.5776 19.0151C29.7748 18.8876 29.8284 18.7836 29.8284 18.6382C29.8284 18.5667 29.7827 18.4419 29.6251 18.3143C29.4695 18.1885 29.2734 18.1195 29.1127 18.1195C28.9361 18.1195 28.816 18.1704 28.5875 18.28L28.5638 18.2914C28.359 18.3899 28.0389 18.5439 27.618 18.5439C27.3265 18.5439 27.0002 18.4614 26.7604 18.2073C26.5234 17.9562 26.4678 17.6399 26.4873 17.3686C26.5459 16.5516 26.6154 15.4123 26.6154 14.5922C26.6154 13.7054 26.2783 12.2169 25.2844 10.9644C24.3135 9.7408 22.6904 8.70718 20.0147 8.70718C17.3387 8.70718 15.7075 9.74111 14.729 10.9659Z" fill="black"/>
<path fill-rule="evenodd" clip-rule="evenodd" d="M14.7291 10.9659C13.7278 12.2194 13.3847 13.7077 13.3847 14.5922C13.3847 15.4123 13.4542 16.5516 13.5128 17.3686C13.5323 17.6399 13.4767 17.9562 13.2397 18.2073C12.9999 18.4614 12.6736 18.5439 12.3821 18.5439C11.9612 18.5439 11.6411 18.3899 11.4363 18.2914L11.4125 18.28C11.1841 18.1704 11.0639 18.1195 10.8873 18.1195C10.7267 18.1195 10.5306 18.1885 10.375 18.3143C10.2174 18.4419 10.1717 18.5667 10.1717 18.6382C10.1717 18.7836 10.2253 18.8876 10.4225 19.0151C10.6554 19.1658 10.9873 19.279 11.4223 19.4217L11.4602 19.4341C11.8215 19.5525 12.269 19.6991 12.6221 19.9192C13.0185 20.1663 13.3847 20.5634 13.3847 21.1751C13.3847 21.3355 13.3404 21.4899 13.2988 21.6068C13.2536 21.7336 13.1925 21.8676 13.1241 22.0012C12.9871 22.269 12.8017 22.5714 12.5979 22.8723C12.1936 23.4692 11.6797 24.1147 11.2526 24.5256C10.8208 24.941 10.1714 25.4079 9.51458 25.7722C9.18379 25.9556 8.83845 26.1202 8.50544 26.2403C8.20735 26.3479 7.88609 26.4322 7.57789 26.4453C7.57021 26.4486 7.56173 26.4524 7.55284 26.4569C7.53863 26.4641 7.52534 26.4718 7.51375 26.4796L7.50781 26.4837C7.50898 26.492 7.51031 26.4982 7.51141 26.5025C7.51388 26.5121 7.51681 26.519 7.52075 26.5261C7.53283 26.548 7.55188 26.5724 7.62897 26.655L7.6492 26.6767C7.78806 26.8261 8.1303 27.02 8.67278 27.1934C9.18944 27.3585 9.80039 27.4778 10.3776 27.5325C10.6664 27.5599 10.8329 27.7403 10.9033 27.8376C10.9758 27.9377 11.0173 28.0433 11.0415 28.1135C11.0884 28.2492 11.1238 28.4164 11.1518 28.5483L11.156 28.5684C11.1942 28.7481 11.2275 28.9018 11.271 29.0303C11.2864 29.0757 11.3006 29.1103 11.3128 29.1357C11.3403 29.1388 11.3826 29.1418 11.4438 29.1416C11.7092 29.1405 11.9749 29.101 12.2379 29.0692C12.6586 29.0185 13.1792 28.9558 13.7305 28.9558C15.009 28.9558 15.8526 29.5322 16.6675 30.0891L16.7133 30.1203C17.0149 30.3263 17.3171 30.5324 17.6569 30.7333C18.6147 31.2992 19.3435 31.2952 19.8759 31.2922C19.9134 31.292 19.9499 31.2918 19.9854 31.2918C20.0206 31.2918 20.0569 31.292 20.0942 31.2922C20.6325 31.2951 21.3857 31.2991 22.3432 30.7333C22.6831 30.5324 22.9853 30.3263 23.2869 30.1203L23.3327 30.0891C24.1476 29.5322 24.9912 28.9558 26.2697 28.9558C26.821 28.9558 27.3416 29.0185 27.7623 29.0692L27.775 29.0708C28.1153 29.1118 28.3642 29.1408 28.5564 29.1416C28.6176 29.1418 28.6598 29.1388 28.6874 29.1357C28.6996 29.1103 28.7138 29.0757 28.7292 29.0303C28.7727 28.9018 28.806 28.7481 28.8442 28.5684L28.8484 28.5483C28.8763 28.4164 28.9118 28.2492 28.9586 28.1135C28.9829 28.0433 29.0244 27.9377 29.0969 27.8376C29.1673 27.7403 29.3338 27.5599 29.6226 27.5325C30.1998 27.4778 30.8107 27.3585 31.3274 27.1934C31.8699 27.02 32.2121 26.8261 32.351 26.6767L32.3712 26.655C32.4483 26.5724 32.4674 26.548 32.4794 26.5261C32.4834 26.519 32.4863 26.5121 32.4888 26.5025C32.4899 26.4982 32.4912 26.492 32.4924 26.4837L32.4864 26.4796C32.4748 26.4718 32.4616 26.4641 32.4473 26.4569C32.4385 26.4524 32.43 26.4486 32.4223 26.4453C32.1141 26.4322 31.7928 26.3479 31.4947 26.2403C31.1617 26.1202 30.8164 25.9556 30.4856 25.7722C29.8288 25.4079 29.1794 24.941 28.7476 24.5256C28.3205 24.1147 27.8066 23.4692 27.4023 22.8723C27.1985 22.5714 27.0131 22.269 26.876 22.0012C26.8076 21.8676 26.7466 21.7336 26.7014 21.6068C26.6598 21.4899 26.6155 21.3355 26.6155 21.1751C26.6155 20.5634 26.9817 20.1663 27.3781 19.9192C27.7312 19.6991 28.1787 19.5525 28.54 19.4341L28.5779 19.4217C29.0129 19.279 29.3448 19.1658 29.5777 19.0151C29.7749 18.8876 29.8285 18.7836 29.8285 18.6382C29.8285 18.5667 29.7828 18.4419 29.6252 18.3143C29.4696 18.1885 29.2735 18.1195 29.1128 18.1195C28.9362 18.1195 28.8161 18.1704 28.5876 18.28L28.5639 18.2914C28.3591 18.3899 28.039 18.5439 27.6181 18.5439C27.3266 18.5439 27.0003 18.4614 26.7605 18.2073C26.5235 17.9562 26.4679 17.6399 26.4874 17.3686C26.546 16.5516 26.6155 15.4123 26.6155 14.5922C26.6155 13.7054 26.2784 12.2169 25.2845 10.9644C24.3136 9.7408 22.6905 8.70718 20.0148 8.70718C17.3388 8.70718 15.7076 9.74111 14.7291 10.9659Z" fill="white"/>
</svg>
