<svg width="40" height="40" viewBox="0 0 40 40" fill="none" xmlns="http://www.w3.org/2000/svg">
<path d="M10.5634 24.7407C10.7588 23.1234 11.4221 22.2178 12.6722 21.2895C14.4607 20.0323 16.6949 20.7434 16.6949 20.7434V16.5245C17.2381 16.5106 17.7814 16.5428 18.3187 16.6207V22.0501C18.3187 22.0501 16.0852 21.3389 14.2966 22.5968C13.0472 23.5244 12.3825 24.4306 12.1879 26.048C12.1818 26.9263 12.3466 28.0743 13.1056 29.0669C12.9179 28.9707 12.7266 28.8611 12.5318 28.738C10.8598 27.6153 10.5553 25.931 10.5634 24.7407ZM27.5437 8.72365C26.3133 7.37541 25.848 6.01416 25.6798 5.05791H27.2276C27.2276 5.05791 26.919 7.56523 29.1681 10.0309L29.1993 10.0641C28.5932 9.6828 28.0373 9.23272 27.5437 8.72365ZM34.9998 12.5461V17.8662C34.9998 17.8662 33.0247 17.7889 31.5631 17.417C29.5222 16.897 28.2104 16.0993 28.2104 16.0993C28.2104 16.0993 27.3043 15.5305 27.231 15.4909V26.4771C27.231 27.0888 27.0635 28.6164 26.5528 29.8906C25.886 31.5574 24.8571 32.6514 24.6679 32.8751C24.6679 32.8751 23.4165 34.354 21.2087 35.3499C19.2187 36.2483 17.4715 36.2255 16.9493 36.2483C16.9493 36.2483 13.929 36.3679 11.2112 34.6016C10.6235 34.2123 10.0749 33.7714 9.57251 33.2846L9.58608 33.2943C12.3045 35.0606 15.3242 34.941 15.3242 34.941C15.8471 34.9182 17.5943 34.941 19.5836 34.0426C21.7893 33.0467 23.0428 31.5678 23.0428 31.5678C23.23 31.3441 24.2636 30.2501 24.9276 28.5826C25.437 27.3092 25.6059 25.7808 25.6059 25.1691V14.1842C25.6792 14.2245 26.5846 14.7934 26.5846 14.7934C26.5846 14.7934 27.8971 15.5916 29.938 16.111C31.4003 16.4829 33.3747 16.5602 33.3747 16.5602V12.3913C34.0502 12.5428 34.6261 12.5838 34.9998 12.5461Z" fill="#EE1D52"/>
<path d="M33.3756 12.3913V16.5589C33.3756 16.5589 31.4012 16.4816 29.9388 16.1097C27.898 15.5897 26.5855 14.7921 26.5855 14.7921C26.5855 14.7921 25.68 14.2232 25.6068 14.1829V25.1704C25.6068 25.7821 25.4393 27.3105 24.9285 28.5839C24.2618 30.2514 23.2329 31.3454 23.0436 31.5691C23.0436 31.5691 21.7916 33.048 19.5845 34.0439C17.5952 34.9423 15.848 34.9195 15.325 34.9423C15.325 34.9423 12.3054 35.0619 9.58695 33.2956L9.57339 33.2859C9.28638 33.008 9.01621 32.7145 8.76422 32.407C7.89673 31.3493 7.36497 30.0986 7.23135 29.7417C7.23112 29.7402 7.23112 29.7387 7.23135 29.7372C7.01634 29.117 6.56462 27.6277 6.62634 26.1852C6.73554 23.6402 7.63085 22.078 7.86756 21.6867C8.49448 20.6195 9.30986 19.6647 10.2774 18.8647C11.1312 18.1744 12.099 17.6252 13.141 17.2396C14.2675 16.7868 15.4738 16.5441 16.6951 16.5245V20.7434C16.6951 20.7434 14.4609 20.0349 12.673 21.2895C11.423 22.2178 10.7597 23.1234 10.5643 24.7407C10.5562 25.931 10.8607 27.6153 12.5313 28.7387C12.7262 28.8622 12.9174 28.9718 13.1051 29.0676C13.3969 29.447 13.7522 29.7775 14.1564 30.0459C15.7883 31.0789 17.1557 31.1511 18.9042 30.4802C20.0701 30.0316 20.9478 29.0208 21.3548 27.9007C21.6105 27.2012 21.6071 26.4972 21.6071 25.7691V5.05791H25.6767C25.8449 6.01416 26.3101 7.37541 27.5405 8.72365C28.0341 9.23272 28.59 9.6828 29.1961 10.0641C29.3752 10.2494 30.2909 11.1653 31.4663 11.7276C32.0741 12.0183 32.7147 12.241 33.3756 12.3913Z" fill="black"/>
<path d="M5.61157 28.4462V28.4494L5.71255 28.7231C5.70095 28.6913 5.66343 28.5944 5.61157 28.4462Z" fill="#69C9D0"/>
<path d="M13.141 17.2396C12.099 17.6253 11.1312 18.1745 10.2774 18.8648C9.30954 19.6666 8.49436 20.6234 7.86822 21.6926C7.63151 22.0827 6.73621 23.6461 6.62701 26.1911C6.56529 27.6336 7.01701 29.1229 7.23202 29.7431C7.23178 29.7446 7.23178 29.7461 7.23202 29.7476C7.36767 30.1013 7.89739 31.352 8.76488 32.4129C9.01687 32.7204 9.28704 33.0139 9.57405 33.2918C8.65446 32.6822 7.83433 31.9453 7.14045 31.105C6.28042 30.0564 5.75002 28.8187 5.61165 28.4533C5.61149 28.4507 5.61149 28.4481 5.61165 28.4455V28.441C5.39597 27.8215 4.94289 26.3315 5.00597 24.8871C5.11517 22.342 6.01047 20.7799 6.24718 20.3886C6.87313 19.3192 7.68834 18.3624 8.65636 17.5608C9.51 16.8702 10.4778 16.321 11.52 15.9356C12.17 15.6771 12.8472 15.4864 13.5398 15.3668C14.5837 15.1921 15.6497 15.177 16.6985 15.3219V16.5246C15.476 16.5437 14.2685 16.7864 13.141 17.2396Z" fill="#69C9D0"/>
<path d="M25.68 5.05794H21.6104V25.7698C21.6104 26.4979 21.6104 27.2 21.3581 27.9014C20.9471 29.0208 20.0728 30.0317 18.9076 30.4802C17.1583 31.1537 15.7909 31.0789 14.1597 30.046C13.7548 29.7788 13.3987 29.4493 13.1057 29.0709C14.4955 29.7814 15.7394 29.7691 17.2804 29.1762C18.445 28.7276 19.3206 27.7168 19.7303 26.5967C19.9867 25.8972 19.9833 25.1932 19.9833 24.4658V3.75H25.6027C25.6027 3.75 25.5396 4.26486 25.68 5.05794ZM33.3755 11.2388V12.3914C32.7158 12.2408 32.0763 12.0181 31.4696 11.7277C30.2942 11.1653 29.3785 10.2494 29.1995 10.0641C29.4073 10.1949 29.6229 10.3138 29.8452 10.4204C31.2743 11.1042 32.6817 11.3084 33.3755 11.2388Z" fill="#69C9D0"/>
</svg>
