<svg width="40" height="40" viewBox="0 0 40 40" fill="none" xmlns="http://www.w3.org/2000/svg">
<path d="M14.7887 31C11.5537 31 8.53817 30.0591 6 28.4356C8.15499 28.5751 11.9581 28.2411 14.3236 25.9848C10.7651 25.8215 9.16026 23.0923 8.95094 21.926C9.25329 22.0426 10.6953 22.1826 11.5093 21.856C7.4159 20.8296 6.78793 17.2373 6.92748 16.141C7.695 16.6775 8.99745 16.8641 9.50913 16.8174C5.69479 14.0882 7.06703 9.98276 7.74151 9.09635C10.4788 12.8887 14.5812 15.0186 19.6564 15.137C19.5607 14.7174 19.5102 14.2804 19.5102 13.8316C19.5102 10.6109 22.1134 8 25.3247 8C27.0025 8 28.5144 8.71275 29.5757 9.85284C30.6969 9.59011 32.3843 8.97507 33.2092 8.4432C32.7934 9.93611 31.4989 11.1815 30.7159 11.6431C30.7095 11.6273 30.7224 11.6588 30.7159 11.6431C31.4037 11.539 33.2648 11.1814 34 10.6826C33.6364 11.5213 32.264 12.9157 31.1377 13.6964C31.3473 22.9381 24.2765 31 14.7887 31Z" fill="#47ACDF"/>
</svg>
