<svg width="32" height="32" viewBox="0 0 32 32" fill="none" xmlns="http://www.w3.org/2000/svg">
<path d="M5.79755 6.99579L2.04565 10.3966L3.34384 12.0312C3.92197 11.6719 5.07822 10.7344 5.59384 10.7344C6.75009 10.7344 7.78952 13.8672 8.78134 17.3125C9.67197 20.4062 10.5938 28.0937 14.8438 28.0937C19.7345 28.0937 30.0157 14.8906 30.0157 9.01434C30.0157 6.88806 29.5938 3.82812 25.3595 3.82812C20.822 3.82812 18.5896 8.20713 18.0406 10.3966C18.4355 10.1333 19.5106 9.9578 20.103 9.9578C22.5165 9.9578 22.0011 12.4595 21.672 13.4687C21.3429 14.478 18.8126 19.3924 17.4482 19.3924C15.7807 19.3924 14.7933 12.1519 14.3106 9.01434C13.8279 5.87679 12.5773 4.1654 10.6684 4.1654C9.14136 4.1654 6.78489 6.05232 5.79755 6.99579Z" fill="#3CB9E6"/>
</svg>
