<svg width="40" height="40" viewBox="0 0 40 40" fill="none" xmlns="http://www.w3.org/2000/svg">
<circle cx="20" cy="20" r="14" fill="#028CB0"/>
<path d="M7.81923 19.75C7.81923 24.4779 10.5692 28.55 14.5462 30.4856L8.85577 14.8952C8.17247 16.4225 7.81926 18.0768 7.81923 19.75ZM19.75 31.6808C21.1356 31.6808 22.4683 31.4375 23.7163 31.0038L23.6317 30.8452L19.9615 20.7971L16.3865 31.1942C17.4442 31.5115 18.576 31.6808 19.75 31.6808ZM21.3894 14.1548L25.7048 26.9846L26.9 23.0077C27.4077 21.3577 27.799 20.1731 27.799 19.1471C27.799 17.6663 27.2702 16.651 26.826 15.8683C26.2125 14.874 25.6519 14.0385 25.6519 13.0654C25.6519 11.9654 26.4769 10.95 27.6615 10.95H27.8096C25.6112 8.93183 22.7343 7.81426 19.75 7.81923C17.774 7.81886 15.829 8.30971 14.0898 9.24762C12.3506 10.1855 10.8718 11.5411 9.78654 13.1923L10.5481 13.2135C11.7962 13.2135 13.7212 13.0548 13.7212 13.0548C14.3769 13.0231 14.451 13.9644 13.8058 14.0385C13.8058 14.0385 13.1606 14.1231 12.4308 14.1548L16.7885 27.0798L19.401 19.2529L17.5394 14.1548C17.1225 14.1318 16.7062 14.0965 16.2913 14.049C15.6462 14.0067 15.7202 13.0231 16.3654 13.0548C16.3654 13.0548 18.3327 13.2135 19.5067 13.2135C20.7548 13.2135 22.6798 13.0548 22.6798 13.0548C23.325 13.0231 23.4096 13.9644 22.7644 14.0385C22.7644 14.0385 22.1192 14.1125 21.3894 14.1548ZM25.7471 30.0625C27.552 29.013 29.0499 27.5083 30.0911 25.6987C31.1324 23.889 31.6805 21.8378 31.6808 19.75C31.6808 17.6769 31.1519 15.7308 30.2212 14.0279C30.4102 15.9014 30.1265 17.7923 29.3962 19.5279L25.7471 30.0625ZM19.75 33.5C16.1033 33.5 12.6059 32.0513 10.0273 29.4727C7.44866 26.8941 6 23.3967 6 19.75C6 16.1033 7.44866 12.6059 10.0273 10.0273C12.6059 7.44866 16.1033 6 19.75 6C23.3967 6 26.8941 7.44866 29.4727 10.0273C32.0513 12.6059 33.5 16.1033 33.5 19.75C33.5 23.3967 32.0513 26.8941 29.4727 29.4727C26.8941 32.0513 23.3967 33.5 19.75 33.5Z" fill="white"/>
</svg>
